<?xml version="1.0" encoding="utf-8"?>
<!-- Generator: Adobe Illustrator 16.0.0, SVG Export Plug-In . SVG Version: 6.00 Build 0)  -->
<!DOCTYPE svg PUBLIC "-//W3C//DTD SVG 1.1//EN" "http://www.w3.org/Graphics/SVG/1.1/DTD/svg11.dtd">
<svg version="1.1" id="Layer_1" xmlns="http://www.w3.org/2000/svg" xmlns:xlink="http://www.w3.org/1999/xlink" x="0px" y="0px"
	 width="256px" height="256px" viewBox="0 0 256 256" enable-background="new 0 0 256 256" xml:space="preserve">
<radialGradient id="SVGID_1_" cx="128" cy="128" r="181.5007" gradientUnits="userSpaceOnUse">
	<stop  offset="0" style="stop-color:#FFFFFF"/>
	<stop  offset="0.4506" style="stop-color:#FDFEFF"/>
	<stop  offset="0.613" style="stop-color:#F6FCFF"/>
	<stop  offset="0.7286" style="stop-color:#EBF8FE"/>
	<stop  offset="0.8222" style="stop-color:#DAF2FE"/>
	<stop  offset="0.9023" style="stop-color:#C4EBFD"/>
	<stop  offset="0.972" style="stop-color:#A9E1FC"/>
	<stop  offset="1" style="stop-color:#9CDDFC"/>
</radialGradient>
<rect fill="url(#SVGID_1_)" width="256" height="256"/>
<linearGradient id="SVGID_2_" gradientUnits="userSpaceOnUse" x1="129.9229" y1="28.4712" x2="125.219" y2="469.0544">
	<stop  offset="0" style="stop-color:#00A8F6"/>
	<stop  offset="1" style="stop-color:#0072BD"/>
</linearGradient>
<circle opacity="0.46" fill="url(#SVGID_2_)" cx="128.849" cy="128.971" r="109.495"/>
<g>
	<g>
		<g>
			<g>
				<path fill="#324763" d="M201.611,118.998h-4.428c0-0.007,0-0.015,0-0.023v-0.001c-0.022-1-0.183-1.968-0.458-2.883
					c-1.346-4.461-5.494-7.721-10.388-7.721c-4.896,0-9.044,3.259-10.39,7.721c-0.275,0.916-0.435,1.883-0.457,2.883v0.001
					c0,0.008,0,0.016,0,0.023h-4.43c0-0.007,0-0.015,0-0.023v-0.001c0.017-0.979,0.124-1.943,0.317-2.883
					c0.599-2.888,2.022-5.541,4.156-7.673c2.885-2.887,6.722-4.475,10.803-4.475c4.079,0,7.915,1.588,10.802,4.475
					c2.134,2.132,3.558,4.785,4.155,7.673c0.194,0.94,0.302,1.904,0.315,2.883v0.001
					C201.611,118.983,201.611,118.991,201.611,118.998z"/>
			</g>
			<g>
				<path fill="#252B3F" d="M199.311,118.998h-2.127c0-0.007,0-0.015,0-0.023v-0.001c-0.022-1-0.183-1.968-0.458-2.883
					c-1.346-4.461-5.494-7.721-10.388-7.721c-4.896,0-9.044,3.259-10.39,7.721c-0.275,0.916-0.435,1.883-0.457,2.883v0.001
					c0,0.008,0,0.016,0,0.023h-2.238c0-0.007,0-0.015,0-0.023v-0.001c0.016-0.983,0.141-1.949,0.366-2.883
					c0.559-2.297,1.735-4.404,3.448-6.118c2.46-2.461,5.733-3.817,9.214-3.817s6.754,1.356,9.214,3.817
					c1.716,1.714,2.893,3.821,3.45,6.118c0.226,0.935,0.35,1.9,0.363,2.883v0.001C199.311,118.983,199.311,118.991,199.311,118.998z
					"/>
			</g>
			<g>
				<g>
					<linearGradient id="SVGID_3_" gradientUnits="userSpaceOnUse" x1="186.3369" y1="115.4546" x2="186.3369" y2="143.7935">
						<stop  offset="0" style="stop-color:#FFA829"/>
						<stop  offset="1" style="stop-color:#FFCA27"/>
					</linearGradient>
					<rect x="166.428" y="119.854" fill="url(#SVGID_3_)" width="39.818" height="29.532"/>
				</g>
				<linearGradient id="SVGID_4_" gradientUnits="userSpaceOnUse" x1="186.3359" y1="132.1641" x2="186.3359" y2="120.7033">
					<stop  offset="0" style="stop-color:#FFA829"/>
					<stop  offset="1" style="stop-color:#FFCA27"/>
				</linearGradient>
				<path fill="url(#SVGID_4_)" d="M208.201,120.857c0,0.009,0,0.018-0.001,0.026c-0.005,0.507-0.216,0.967-0.552,1.302
					c-0.339,0.342-0.811,0.553-1.328,0.553h-39.967c-1.025,0-1.867-0.832-1.881-1.855c-0.002-0.008-0.002-0.018-0.002-0.026
					c0-0.517,0.213-0.988,0.556-1.329c0.339-0.34,0.812-0.553,1.327-0.553h39.967C207.356,118.975,208.201,119.822,208.201,120.857z
					"/>
				<linearGradient id="SVGID_5_" gradientUnits="userSpaceOnUse" x1="186.2813" y1="142.2998" x2="186.2813" y2="156.3873">
					<stop  offset="0" style="stop-color:#FFA829"/>
					<stop  offset="1" style="stop-color:#FFCA27"/>
				</linearGradient>
				<path fill="url(#SVGID_5_)" d="M208.146,147.505c0,0.017,0,0.037,0,0.056c-0.015,0.494-0.224,0.944-0.553,1.272
					c-0.34,0.343-0.812,0.554-1.328,0.554h-39.967c-1.016,0-1.851-0.816-1.88-1.826c-0.001-0.019-0.001-0.039-0.001-0.056
					c0-0.517,0.212-0.989,0.553-1.328c0.341-0.344,0.813-0.555,1.328-0.555h39.967C207.299,145.622,208.146,146.47,208.146,147.505z
					"/>
			</g>
			<path fill="#DB8527" d="M208.146,147.561c-0.015,0.494-0.224,0.944-0.553,1.272c-0.34,0.343-0.812,0.554-1.328,0.554h-39.967
				c-1.016,0-1.851-0.816-1.88-1.826H208.146z"/>
		</g>
		<radialGradient id="SVGID_6_" cx="186.3096" cy="134.6338" r="7.6047" gradientUnits="userSpaceOnUse">
			<stop  offset="0" style="stop-color:#FFFFFF"/>
			<stop  offset="1" style="stop-color:#FFFFFF"/>
		</radialGradient>
		<path opacity="0.2" fill="url(#SVGID_6_)" d="M183.221,135.495l-1.113,8.37h8.403l-1.111-8.37
			c1.462-0.997,2.428-2.672,2.428-4.576c0-3.041-2.469-5.517-5.52-5.517c-3.039,0-5.516,2.477-5.516,5.517
			C180.792,132.823,181.756,134.498,183.221,135.495z"/>
		<path fill="#DB8527" d="M183.857,142.331l1.005-7.571l-0.779-0.528c-1.102-0.751-1.759-1.99-1.759-3.313
			c0-2.197,1.787-3.984,3.983-3.984c2.199,0,3.987,1.787,3.987,3.984c0,1.322-0.658,2.562-1.759,3.312l-0.779,0.529l1.005,7.571
			H183.857z"/>
		<circle fill="#DB8527" cx="169.146" cy="143.047" r="0.971"/>
		<circle fill="#DB8527" cx="169.146" cy="125.11" r="0.971"/>
		<path fill="#DB8527" d="M204.333,143.047c0,0.534-0.435,0.971-0.97,0.971c-0.539,0-0.972-0.437-0.972-0.971
			c0-0.537,0.433-0.972,0.972-0.972C203.898,142.075,204.333,142.51,204.333,143.047z"/>
		<path fill="#DB8527" d="M204.333,125.11c0,0.535-0.435,0.972-0.97,0.972c-0.539,0-0.972-0.437-0.972-0.972
			c0-0.537,0.433-0.971,0.972-0.971C203.898,124.139,204.333,124.573,204.333,125.11z"/>
	</g>
	<path fill="#DB8527" d="M208.2,120.883c-0.005,0.507-0.216,0.967-0.552,1.302c-0.339,0.342-0.811,0.553-1.328,0.553h-39.967
		c-1.025,0-1.867-0.832-1.881-1.855H208.2z"/>
	<path opacity="0.2" d="M175.948,116.091c-0.275,0.916-0.435,1.883-0.457,2.883h-4.43c0.017-0.979,0.124-1.943,0.317-2.883H175.948z
		"/>
	<path opacity="0.2" d="M201.61,118.974h-4.427c-0.022-1-0.183-1.968-0.458-2.883h4.569
		C201.489,117.031,201.597,117.995,201.61,118.974z"/>
</g>
<g>
	<g>
		<g>
			<g>
				<linearGradient id="SVGID_7_" gradientUnits="userSpaceOnUse" x1="127.4468" y1="55.9521" x2="127.7112" y2="35.5915">
					<stop  offset="0" style="stop-color:#FFA829"/>
					<stop  offset="1" style="stop-color:#FFCA27"/>
				</linearGradient>
				<path fill="url(#SVGID_7_)" d="M123.261,39.729c-0.789,2.354-1.531,4.722-2.29,7.084c-0.041,0.128-0.066,0.262-0.127,0.511
					c2.334-1.711,4.569-3.352,6.808-4.993c0.027-0.019,0.055-0.041,0.083-0.062c0.019-0.016,0.037-0.028,0.056-0.041
					c2.297,1.684,4.562,3.354,6.964,5.115c-0.077-0.268-0.103-0.37-0.136-0.472c-0.765-2.381-1.513-4.766-2.302-7.136
					c-0.15-0.457-0.114-0.699,0.298-0.992c1.979-1.409,3.928-2.86,5.887-4.298c0.153-0.112,0.298-0.229,0.448-0.342
					c-0.016-0.04-0.03-0.076-0.046-0.112h-0.593c-2.447,0-4.896-0.012-7.349,0.008c-0.403,0.003-0.576-0.131-0.687-0.512
					c-0.354-1.182-0.745-2.348-1.12-3.521c-0.44-1.36-0.884-2.72-1.36-4.192c-0.02,0.063-0.043,0.122-0.062,0.174
					c-0.03,0.086-0.059,0.165-0.083,0.238c-0.047,0.138-0.088,0.257-0.127,0.378c-0.748,2.307-1.5,4.614-2.227,6.93
					c-0.121,0.383-0.301,0.509-0.7,0.506c-2.468-0.021-4.935-0.011-7.405-0.008c-0.182,0-0.367,0.016-0.684,0.028
					c0.27,0.208,0.413,0.321,0.56,0.429c1.961,1.435,3.91,2.886,5.889,4.295C123.367,39.036,123.412,39.276,123.261,39.729z"/>
			</g>
		</g>
		<g>
			<g>
				<g>
					<linearGradient id="SVGID_8_" gradientUnits="userSpaceOnUse" x1="75.2373" y1="81.48" x2="75.2373" y2="56.69">
						<stop  offset="0" style="stop-color:#FFA829"/>
						<stop  offset="1" style="stop-color:#FFCA27"/>
					</linearGradient>
					<path fill="url(#SVGID_8_)" d="M70.768,58.697c-0.788,2.354-1.532,4.722-2.29,7.083c-0.042,0.13-0.067,0.262-0.128,0.51
						c2.334-1.711,4.569-3.351,6.808-4.992c0.028-0.019,0.056-0.042,0.084-0.061c0.019-0.018,0.037-0.027,0.056-0.042
						c2.297,1.684,4.562,3.353,6.964,5.114c-0.078-0.268-0.104-0.37-0.137-0.47c-0.763-2.383-1.512-4.767-2.301-7.138
						c-0.15-0.456-0.113-0.698,0.298-0.99c1.978-1.411,3.928-2.862,5.886-4.3c0.155-0.11,0.298-0.229,0.45-0.342
						c-0.017-0.038-0.03-0.076-0.048-0.112h-0.59c-2.45,0-4.897-0.011-7.349,0.008c-0.404,0.003-0.577-0.131-0.688-0.512
						c-0.354-1.181-0.743-2.348-1.119-3.521c-0.44-1.36-0.883-2.72-1.359-4.19c-0.02,0.062-0.042,0.12-0.062,0.172
						c-0.031,0.087-0.06,0.166-0.084,0.238c-0.047,0.139-0.089,0.256-0.127,0.378c-0.748,2.307-1.499,4.614-2.227,6.929
						c-0.122,0.383-0.301,0.509-0.698,0.506c-2.468-0.019-4.937-0.011-7.405-0.008c-0.184,0-0.369,0.017-0.686,0.029
						c0.27,0.208,0.413,0.32,0.56,0.428c1.962,1.435,3.912,2.887,5.889,4.297C70.875,58.004,70.919,58.243,70.768,58.697z"/>
				</g>
			</g>
			<g>
				<g>
					<linearGradient id="SVGID_9_" gradientUnits="userSpaceOnUse" x1="42.8589" y1="115.8135" x2="43.4538" y2="92.0186">
						<stop  offset="0" style="stop-color:#FFA829"/>
						<stop  offset="1" style="stop-color:#FFCA27"/>
					</linearGradient>
					<path fill="url(#SVGID_9_)" d="M38.971,98.227c-0.787,2.354-1.531,4.722-2.289,7.085c-0.042,0.127-0.067,0.261-0.128,0.509
						c2.334-1.711,4.568-3.352,6.808-4.992c0.027-0.021,0.056-0.042,0.084-0.062c0.02-0.016,0.036-0.028,0.057-0.042
						c2.297,1.686,4.562,3.354,6.964,5.115c-0.079-0.268-0.104-0.371-0.137-0.47c-0.765-2.381-1.513-4.766-2.301-7.138
						c-0.15-0.457-0.113-0.699,0.298-0.992c1.979-1.411,3.928-2.86,5.886-4.298c0.155-0.111,0.298-0.227,0.45-0.343
						c-0.017-0.039-0.032-0.075-0.046-0.11h-0.592c-2.449,0-4.896-0.011-7.349,0.008c-0.405,0.003-0.577-0.131-0.689-0.513
						c-0.353-1.182-0.742-2.349-1.12-3.521c-0.439-1.359-0.884-2.718-1.359-4.189c-0.019,0.061-0.042,0.12-0.062,0.173
						c-0.032,0.086-0.059,0.164-0.084,0.237c-0.047,0.14-0.089,0.255-0.127,0.38c-0.748,2.306-1.5,4.611-2.227,6.927
						c-0.122,0.385-0.301,0.511-0.698,0.507c-2.469-0.019-4.937-0.011-7.406-0.008c-0.183,0-0.368,0.016-0.686,0.028
						c0.271,0.209,0.414,0.319,0.56,0.429c1.962,1.435,3.912,2.884,5.889,4.295C39.078,97.533,39.124,97.773,38.971,98.227z"/>
				</g>
			</g>
		</g>
	</g>
	<g>
		<g>
			<g>
				<g>
					<linearGradient id="SVGID_10_" gradientUnits="userSpaceOnUse" x1="172.1904" y1="70.876" x2="174.1734" y2="55.8056">
						<stop  offset="0" style="stop-color:#FFA829"/>
						<stop  offset="1" style="stop-color:#FFCA27"/>
					</linearGradient>
					<path fill="url(#SVGID_10_)" d="M179.009,58.697c0.789,2.354,1.531,4.722,2.291,7.083c0.042,0.13,0.065,0.262,0.127,0.51
						c-2.334-1.711-4.569-3.351-6.808-4.992c-0.028-0.019-0.056-0.042-0.085-0.061c-0.02-0.018-0.035-0.027-0.055-0.042
						c-2.298,1.684-4.563,3.353-6.964,5.114c0.077-0.268,0.102-0.37,0.136-0.47c0.764-2.383,1.512-4.767,2.3-7.138
						c0.15-0.456,0.114-0.698-0.297-0.99c-1.979-1.411-3.928-2.862-5.887-4.3c-0.155-0.11-0.298-0.229-0.45-0.342
						c0.019-0.038,0.032-0.076,0.048-0.112h0.593c2.448,0,4.896-0.011,7.349,0.008c0.403,0.003,0.575-0.131,0.688-0.512
						c0.352-1.181,0.742-2.348,1.119-3.521c0.438-1.36,0.883-2.72,1.359-4.19c0.02,0.062,0.041,0.12,0.061,0.172
						c0.032,0.087,0.059,0.166,0.085,0.238c0.046,0.139,0.088,0.256,0.126,0.378c0.748,2.307,1.5,4.614,2.228,6.929
						c0.122,0.383,0.301,0.509,0.698,0.506c2.47-0.019,4.937-0.011,7.405-0.008c0.184,0,0.368,0.017,0.686,0.029
						c-0.271,0.208-0.413,0.32-0.56,0.428c-1.963,1.435-3.912,2.887-5.89,4.297C178.902,58.004,178.858,58.243,179.009,58.697z"/>
				</g>
			</g>
			<g>
				<g>
					<linearGradient id="SVGID_11_" gradientUnits="userSpaceOnUse" x1="208.0332" y1="117.3267" x2="206.546" y2="95.6137">
						<stop  offset="0" style="stop-color:#FFA829"/>
						<stop  offset="1" style="stop-color:#FFCA27"/>
					</linearGradient>
					<path fill="url(#SVGID_11_)" d="M210.806,98.227c0.789,2.354,1.531,4.722,2.291,7.085c0.041,0.127,0.065,0.261,0.126,0.509
						c-2.334-1.711-4.567-3.352-6.808-4.992c-0.028-0.021-0.055-0.042-0.084-0.062c-0.02-0.016-0.034-0.028-0.056-0.042
						c-2.297,1.686-4.563,3.354-6.964,5.115c0.077-0.268,0.103-0.371,0.136-0.47c0.764-2.381,1.512-4.766,2.301-7.138
						c0.151-0.457,0.115-0.699-0.298-0.992c-1.979-1.411-3.928-2.86-5.886-4.298c-0.155-0.111-0.299-0.227-0.45-0.343
						c0.019-0.039,0.032-0.075,0.049-0.11h0.592c2.448,0,4.896-0.011,7.349,0.008c0.403,0.003,0.574-0.131,0.688-0.513
						c0.354-1.182,0.742-2.349,1.12-3.521c0.438-1.359,0.884-2.718,1.359-4.189c0.019,0.061,0.041,0.12,0.061,0.173
						c0.032,0.086,0.06,0.164,0.084,0.237c0.047,0.14,0.088,0.255,0.127,0.38c0.748,2.306,1.5,4.611,2.227,6.927
						c0.123,0.385,0.301,0.511,0.698,0.507c2.471-0.019,4.937-0.011,7.406-0.008c0.184,0,0.367,0.016,0.686,0.028
						c-0.271,0.209-0.413,0.319-0.561,0.429c-1.962,1.435-3.912,2.884-5.889,4.295C210.699,97.533,210.655,97.773,210.806,98.227z"
						/>
				</g>
			</g>
		</g>
	</g>
</g>
<g>
	<g>
		<g>
			<path fill="#734126" d="M167.675,169.624c-0.504-0.492-0.984-1.006-1.432-1.545c-2.367-1.386-4.531-3.28-5.4-5.968
				c-0.852-2.669-0.488-5.485,0.072-8.176c0.098-0.475,0.198-0.944,0.297-1.414c-0.309-0.157-0.609-0.317-0.904-0.495
				c-3.698-2.321-6.136-6.082-6.815-10.409c-0.286-1.82-0.453-3.512-0.337-5.318c-0.067-0.987-0.07-1.916-0.002-2.812
				c0.144-0.827,0.308-1.461,0.525-2.066c0.155-0.312,0.327-0.621,0.521-0.931c-0.667-0.508-1.286-1.086-1.846-1.714
				c-1.484-1.702-2.47-3.738-3.162-5.881c-1.772-5.464-1.154-11.46,1.531-16.525c1.237-2.346,2.846-4.627,4.78-6.437
				c0.858-0.808,1.72-1.64,2.638-2.376c1.147-0.914,2.292-1.912,3.605-2.601c0.606-0.315,1.233-0.584,1.86-0.856
				c0.492-0.211,0.989-0.41,1.491-0.596c0.4-0.147,0.801-0.296,1.209-0.426c0.781-0.253,1.57-0.496,2.372-0.685
				c-0.044-0.109-0.097-0.213-0.153-0.316c-1.021-1.752-2.06-3.479-3.205-5.151c-1.392-2.027-3.228-3.65-5.335-4.899
				c-2.896-1.708-5.942-3.133-8.932-4.655c-1.763-0.907-3.605-1.673-5.461-2.383c-1.74-0.666-3.528-1.146-5.339-1.564
				c-3.561-0.836-7.173-1.462-10.775-2.034c-1.992-0.318-3.994-0.625-6.004-0.798c-1.92-0.153-3.839-0.178-5.765-0.184
				c-3.931,0-7.854,0.679-11.699,1.453c-3.559,0.727-7.079,1.6-10.56,2.653c-3.716,1.123-7.351,2.565-10.856,4.217
				c-3.249,1.534-6.229,3.639-9.081,5.798c-2.98,2.249-5.845,4.648-8.667,7.101c-2.46,2.143-4.931,4.365-6.941,6.934
				c-1.145,1.477-2.26,2.949-3.173,4.586c-0.825,1.5-1.67,3.004-2.415,4.543c-1.739,3.575-3.317,7.211-4.611,10.972
				c-1.275,3.681-1.903,7.628-2.373,11.488c-0.224,1.895-0.487,3.79-0.682,5.686c-0.195,1.909-0.295,3.818-0.384,5.728
				c-0.48,3.386-0.631,6.808-0.451,10.206c0.147,2.646,0.586,5.298,1.006,7.859l0.085,0.527l0.11,0.602
				c0.106,0.643,0.215,1.276,0.339,1.92c0.401,2.049,0.958,4.076,1.703,6.188c1.319,3.803,2.877,7.219,4.624,10.168l0.413,0.704
				c1.083,1.843,2.205,3.755,3.536,5.502c1.5,1.971,3.201,3.829,4.851,5.617l0.208,0.23c2.003,2.18,4.077,4.293,6.159,6.26
				c1.788,1.696,3.452,3.063,5.083,4.203c0.766,0.543,1.586,1.005,2.375,1.452l0.72,0.419c0.44,0.264,0.882,0.527,1.329,0.749
				l1.193,0.605c1.221,0.617,2.445,1.242,3.705,1.794c4.063,1.804,8.248,3.179,12.457,4.101c3.729,0.803,7.568,1.284,10.831,1.646
				c3.117,0.355,5.866,0.534,8.395,0.553l1.192,0.015c0.497,0,0.991,0.005,1.486,0.005c0.586,0,1.177-0.005,1.764-0.038l1.359-0.068
				c1.053-0.041,2.114-0.086,3.159-0.21c3.227-0.372,6.684-0.799,10.087-1.399c2.615-0.464,5.348-1.185,8.333-2.195
				c2.762-0.955,5.479-2.044,8.247-3.18c2.53-1.038,5.511-2.318,8.41-3.88c3.365-1.792,6.88-3.813,9.789-6.45l0.326-0.304
				c0.423-0.38,0.842-0.764,1.252-1.168l0.395-0.395l0.409-0.409c0.904-0.914,1.678-1.937,2.384-2.894
				c0.974-1.339,1.879-2.732,2.55-3.785c1.744-2.754,3.212-5.313,4.495-7.829c0.652-1.26,1.271-2.529,1.891-3.799
				c0.496-1.021,0.99-2.034,1.504-3.047c0.109-0.22,0.216-0.44,0.326-0.666c-1.999,1.45-4.471,2.271-6.968,2.399
				C173.699,173.758,170.233,172.126,167.675,169.624z"/>
		</g>
		<path fill="#FFFFFF" d="M101.248,103.909c0,1.951,1.616,3.567,3.567,3.567s3.567-1.616,3.567-3.567
			c0-1.95-1.616-3.566-3.567-3.566S101.248,101.959,101.248,103.909L101.248,103.909L101.248,103.909z"/>
		<path fill="#FFFFFF" d="M82.24,130.836c0,2.222,1.859,4.078,4.079,4.078c2.222,0,4.076-1.856,4.076-4.078
			c0-2.217-1.854-4.076-4.076-4.076C84.099,126.76,82.24,128.619,82.24,130.836L82.24,130.836L82.24,130.836z"/>
		<path fill="#FFFFFF" d="M107.039,160.157c0,2.503,2.087,4.594,4.588,4.594c2.5,0,4.589-2.091,4.589-4.594
			c0-2.492-2.089-4.584-4.589-4.584C109.126,155.573,107.039,157.665,107.039,160.157L107.039,160.157L107.039,160.157z"/>
		<path fill="#FFFFFF" d="M128.57,130.132c0,1.822,1.526,3.347,3.349,3.347c1.825,0,3.353-1.524,3.353-3.347
			c0-1.829-1.527-3.355-3.353-3.355C130.097,126.776,128.57,128.303,128.57,130.132L128.57,130.132L128.57,130.132z"/>
		<path fill="#FFFFFF" d="M86.963,175.223c0,2.011,1.672,3.68,3.685,3.68c2.012,0,3.682-1.669,3.682-3.68
			c0-2.014-1.669-3.684-3.682-3.684C88.635,171.539,86.963,173.209,86.963,175.223L86.963,175.223L86.963,175.223z"/>
		<path fill="#FFFFFF" d="M133.409,178.238c0,0.991,0.833,1.827,1.823,1.827c0.991,0,1.826-0.836,1.826-1.827
			c0-0.989-0.835-1.827-1.826-1.827C134.242,176.411,133.409,177.249,133.409,178.238L133.409,178.238L133.409,178.238z"/>
		<path fill="#FFFFFF" d="M124.181,94.772c0,0.991,0.839,1.827,1.827,1.827c0.989,0,1.827-0.836,1.827-1.827
			c0-0.988-0.838-1.826-1.827-1.826C125.02,92.946,124.181,93.784,124.181,94.772L124.181,94.772L124.181,94.772z"/>
		<path fill="#FFFFFF" d="M68.737,107.334c0,1.152,0.961,2.111,2.114,2.111s2.111-0.959,2.111-2.111
			c0-1.153-0.958-2.114-2.111-2.114S68.737,106.181,68.737,107.334L68.737,107.334L68.737,107.334z"/>
		<path fill="#FFFFFF" d="M64.092,152.999c0,1.215,1.015,2.228,2.229,2.228c1.215,0,2.228-1.013,2.228-2.228
			s-1.013-2.227-2.228-2.227C65.107,150.772,64.092,151.784,64.092,152.999L64.092,152.999L64.092,152.999z"/>
		<path fill="#FFFFFF" d="M110.722,187.201c0,0.993,0.834,1.826,1.824,1.826c0.994,0,1.827-0.833,1.827-1.826
			c0-0.988-0.833-1.824-1.827-1.824C111.556,185.377,110.722,186.213,110.722,187.201L110.722,187.201L110.722,187.201z"/>
	</g>
</g>
</svg>
